<svg width="310" height="310" viewBox="0 -26 310 310" xmlns="http://www.w3.org/2000/svg">
    <path data-name="Path 29" d="M310 30.284A30.287 30.287 0 0 0 279.713-.003H30.287A30.287 30.287 0 0 0 0 30.284v197.425a30.288 30.288 0 0 0 30.287 30.288h249.426A30.288 30.288 0 0 0 310 227.709ZM29.979 23.997h249.567A6.611 6.611 0 0 1 286 30.28v.262l-126.748 126.55a6.231 6.231 0 0 1-4.382 1.774 6.056 6.056 0 0 1-4.294-1.774L24 30.526v-.246A6.2 6.2 0 0 1 29.979 24Zm249.567 210H29.979A6.161 6.161 0 0 1 24 227.752V64.794l109.394 109.434a30.043 30.043 0 0 0 21.4 8.87 30.525 30.525 0 0 0 21.6-8.871L285.999 64.812v162.943a6.577 6.577 0 0 1-6.453 6.245Z" fill="#453c5c"/>
</svg>
