<svg xmlns="http://www.w3.org/2000/svg" viewBox="0 0 335.274 335.274" style="enable-background:new 0 0 335.274 335.274" xml:space="preserve">
    <path d="M167.638 37.992c-33.218 0-60.242 27.024-60.242 60.242 0 33.217 27.024 60.241 60.242 60.241 33.218 0 60.242-27.024 60.242-60.241s-27.026-60.242-60.242-60.242zm0 100.484c-22.189 0-40.242-18.052-40.242-40.241s18.053-40.242 40.242-40.242c22.189 0 40.242 18.053 40.242 40.242 0 22.189-18.054 40.241-40.242 40.241z"/>
    <path d="M210 200.754c13.642-14.606 27.809-30.193 35.537-39.938 13.998-17.65 21.396-38.923 21.396-61.519C266.935 44.544 222.391 0 167.638 0S68.341 44.544 68.341 99.297c0 22.594 7.405 43.873 21.415 61.537 17.593 22.183 68.551 74.643 70.712 76.865l7.17 7.374 7.17-7.374c.747-.768 7.318-7.532 16.324-16.971H209c10.276 0 18.637 8.36 18.637 18.636s-8.36 18.637-18.637 18.637h-82.727c-21.305 0-38.637 17.332-38.637 38.637 0 21.304 17.332 38.636 38.637 38.636h41.363v-20h-41.363c-10.276 0-18.637-8.36-18.637-18.636s8.36-18.637 18.637-18.637H209c21.305 0 38.637-17.332 38.637-38.637.001-20.968-16.793-38.076-37.637-38.61zm-42.362 15.578c-14.934-15.526-49.062-51.345-62.212-67.926-11.177-14.093-17.085-31.074-17.085-49.109C88.341 55.572 123.912 20 167.638 20c43.725 0 79.297 35.572 79.297 79.297 0 18.037-5.901 35.013-17.067 49.092-13.154 16.586-47.295 52.415-62.23 67.943z"/>
</svg>
