<svg width="322" height="322" viewBox="0 -10 322 322" xmlns="http://www.w3.org/2000/svg">
    <g data-name="Group 2">
        <path data-name="Path 8" d="M215.818 102h-40.585a12 12 0 1 0 0 24h40.585a12 12 0 1 0 0-24Z"/>
        <path data-name="Path 9" d="M296.53 0H25.459A25.453 25.453 0 0 0 0 25.216v78.068C0 117.184 11.514 129 25.459 129H47v148.506C47 290.865 57.643 302 70.955 302h179.646a24.725 24.725 0 0 0 24.4-24.494V129h21.53c13.945 0 25.47-11.817 25.47-25.716V25.216A25.463 25.463 0 0 0 296.53 0Zm-97.095 24a40.138 40.138 0 0 1-77.074 0ZM298 103.284c0 .475-.954.716-1.47.716h-34.073A12.636 12.636 0 0 0 250 116.376V278H71V116.376A12.3 12.3 0 0 0 58.927 104H25.459c-.514 0-1.459-.241-1.459-.716V25.216c0-.411.889-1.216 1.459-1.216h72.045c5.328 31 31.727 53.145 63.4 53.145S218.97 55 224.304 24h72.236c.571 0 1.47.8 1.47 1.216Z"/>
    </g>
</svg>
